<?xml version="1.0" encoding="UTF-8"?>
<!DOCTYPE svg PUBLIC "-//W3C//DTD SVG 1.1//EN" "http://www.w3.org/Graphics/SVG/1.1/DTD/svg11.dtd">
<svg xmlns="http://www.w3.org/2000/svg" version="1.1" width="800px" height="300px" style="shape-rendering:geometricPrecision; text-rendering:geometricPrecision; image-rendering:optimizeQuality; fill-rule:evenodd; clip-rule:evenodd" xmlns:xlink="http://www.w3.org/1999/xlink">
<g><path style="opacity:1" fill="#fefefe" d="M -0.5,-0.5 C 266.167,-0.5 532.833,-0.5 799.5,-0.5C 799.5,99.5 799.5,199.5 799.5,299.5C 532.833,299.5 266.167,299.5 -0.5,299.5C -0.5,199.5 -0.5,99.5 -0.5,-0.5 Z"/></g>
<g><path style="opacity:1" fill="#030303" d="M 413.5,78.5 C 441.267,76.0271 464.433,85.0271 483,105.5C 501.959,134.633 502.292,163.966 484,193.5C 472.076,209.219 456.242,218.385 436.5,221C 404.352,225.634 379.518,214.468 362,187.5C 345.779,154.27 349.945,124.103 374.5,97C 385.763,87.0338 398.763,80.8671 413.5,78.5 Z"/></g>
<g><path style="opacity:1" fill="#454545" d="M 192.5,81.5 C 181.448,80.8572 170.781,81.5238 160.5,83.5C 159.596,82.791 159.263,81.791 159.5,80.5C 170.679,80.1721 181.679,80.5054 192.5,81.5 Z"/></g>
<g><path style="opacity:1" fill="#444444" d="M 316.5,81.5 C 327.34,80.1762 338.34,80.1762 349.5,81.5C 349.376,82.1067 349.043,82.44 348.5,82.5C 338.013,81.5056 327.346,81.1722 316.5,81.5 Z"/></g>
<g><path style="opacity:1" fill="#454545" d="M 729.5,81.5 C 741.34,80.1755 753.34,80.1755 765.5,81.5C 765.376,82.1067 765.043,82.44 764.5,82.5C 753.012,81.5051 741.345,81.1717 729.5,81.5 Z"/></g>
<g><path style="opacity:1" fill="#030303" d="M 119.5,80.5 C 131.505,80.3335 143.505,80.5001 155.5,81C 137.11,102.386 119.11,124.053 101.5,146C 120.295,170.299 139.295,194.466 158.5,218.5C 146.5,219.833 134.5,219.833 122.5,218.5C 108.833,200.5 95.1667,182.5 81.5,164.5C 77.8427,168.327 74.3427,172.327 71,176.5C 70.5001,190.829 70.3334,205.163 70.5,219.5C 60.8333,219.5 51.1667,219.5 41.5,219.5C 41.3334,205.163 41.5001,190.829 42,176.5C 68.8049,145.204 94.6382,113.204 119.5,80.5 Z"/></g>
<g><path style="opacity:1" fill="#030303" d="M 275.5,117.5 C 275.41,120.152 276.076,122.485 277.5,124.5C 280.84,137.517 284.174,150.517 287.5,163.5C 287.41,166.152 288.076,168.485 289.5,170.5C 290.768,172.905 291.435,175.572 291.5,178.5C 291.56,179.043 291.893,179.376 292.5,179.5C 293.386,178.675 293.719,177.675 293.5,176.5C 300.43,144.537 308.097,112.871 316.5,81.5C 327.346,81.1722 338.013,81.5056 348.5,82.5C 339.006,116.146 329.672,149.812 320.5,183.5C 319.076,185.515 318.41,187.848 318.5,190.5C 317.076,192.515 316.41,194.848 316.5,197.5C 313.888,204.668 311.888,212.002 310.5,219.5C 299.654,219.828 288.987,219.494 278.5,218.5C 278.59,215.848 277.924,213.515 276.5,211.5C 272.66,195.341 268.66,179.341 264.5,163.5C 264.59,160.848 263.924,158.515 262.5,156.5C 260.306,146.058 257.639,135.724 254.5,125.5C 249.12,145.063 244.12,164.73 239.5,184.5C 238.076,186.515 237.41,188.848 237.5,191.5C 235.214,200.72 232.881,210.053 230.5,219.5C 220.145,219.832 209.812,219.499 199.5,218.5C 186.288,173.535 173.288,128.535 160.5,83.5C 170.781,81.5238 181.448,80.8572 192.5,81.5C 200.616,113.3 208.449,145.3 216,177.5C 217.016,178.634 217.683,178.301 218,176.5C 220.327,168.191 222.494,159.857 224.5,151.5C 225.924,149.485 226.59,147.152 226.5,144.5C 230.512,129.116 234.512,113.782 238.5,98.5C 239.924,96.4855 240.59,94.1522 240.5,91.5C 240.648,87.7391 241.648,84.2391 243.5,81C 251.159,80.5003 258.826,80.3336 266.5,80.5C 269.656,92.7916 272.656,105.125 275.5,117.5 Z"/></g>
<g><path style="opacity:1" fill="#020202" d="M 588.5,81.5 C 608.732,83.5752 621.899,94.2418 628,113.5C 632.731,139.211 623.231,157.211 599.5,167.5C 609.5,184.5 619.5,201.5 629.5,218.5C 618.167,219.833 606.833,219.833 595.5,218.5C 587,202.833 578.5,187.167 570,171.5C 562.587,170.519 555.087,170.186 547.5,170.5C 547.5,186.833 547.5,203.167 547.5,219.5C 537.833,219.5 528.167,219.5 518.5,219.5C 518.5,173.5 518.5,127.5 518.5,81.5C 541.833,81.5 565.167,81.5 588.5,81.5 Z"/></g>
<g><path style="opacity:1" fill="#020202" d="M 680.5,80.5 C 680.167,100.844 680.5,121.178 681.5,141.5C 682.107,141.376 682.44,141.043 682.5,140.5C 697.937,120.612 713.604,100.945 729.5,81.5C 741.345,81.1717 753.012,81.5051 764.5,82.5C 746.956,103.746 729.289,124.913 711.5,146C 730.439,170.61 749.772,194.944 769.5,219C 757.5,219.667 745.5,219.667 733.5,219C 719.278,200.952 705.278,182.785 691.5,164.5C 687.843,168.327 684.343,172.327 681,176.5C 680.5,190.829 680.333,205.163 680.5,219.5C 670.833,219.5 661.167,219.5 651.5,219.5C 651.5,173.167 651.5,126.833 651.5,80.5C 661.167,80.5 670.833,80.5 680.5,80.5 Z"/></g>
<g><path style="opacity:1" fill="#ffa512" d="M 43.5,154.5 C 41.5129,136.197 40.8462,117.53 41.5,98.5C 37.5,98.5 33.5,98.5 29.5,98.5C 28.2972,92.4861 28.2972,86.4861 29.5,80.5C 42.8333,80.5 56.1667,80.5 69.5,80.5C 68.6843,95.182 68.5176,109.849 69,124.5C 61.0398,134.96 52.5398,144.96 43.5,154.5 Z"/></g>
<g><path style="opacity:1" fill="#909090" d="M 680.5,80.5 C 681.167,100.5 681.833,120.5 682.5,140.5C 682.44,141.043 682.107,141.376 681.5,141.5C 680.5,121.178 680.167,100.844 680.5,80.5 Z"/></g>
<g><path style="opacity:1" fill="#4a4a4a" d="M 240.5,91.5 C 240.59,94.1522 239.924,96.4855 238.5,98.5C 238.41,95.8478 239.076,93.5145 240.5,91.5 Z"/></g>
<g><path style="opacity:1" fill="#fff3e0" d="M 29.5,98.5 C 33.5,98.5 37.5,98.5 41.5,98.5C 40.8462,117.53 41.5129,136.197 43.5,154.5C 42.791,155.404 41.791,155.737 40.5,155.5C 40.5,136.833 40.5,118.167 40.5,99.5C 36.6286,99.815 32.9619,99.4816 29.5,98.5 Z"/></g>
<g><path style="opacity:1" fill="#a6a6a6" d="M 431.5,105.5 C 425.464,105.36 419.464,105.693 413.5,106.5C 416.695,104.97 420.195,104.304 424,104.5C 426.69,104.503 429.19,104.836 431.5,105.5 Z"/></g>
<g><path style="opacity:1" fill="#fdfdfd" d="M 431.5,105.5 C 449.96,109.125 461.46,120.125 466,138.5C 470.064,158.308 464.564,174.808 449.5,188C 432.246,198.317 415.246,197.984 398.5,187C 385.613,172.992 380.779,156.492 384,137.5C 388.282,121.721 398.116,111.388 413.5,106.5C 419.464,105.693 425.464,105.36 431.5,105.5 Z"/></g>
<g><path style="opacity:1" fill="#f9f9f9" d="M 547.5,106.5 C 559.171,106.333 570.838,106.5 582.5,107C 598.932,112.039 603.099,122.206 595,137.5C 591.368,140.606 587.201,142.773 582.5,144C 570.838,144.5 559.171,144.667 547.5,144.5C 547.5,131.833 547.5,119.167 547.5,106.5 Z"/></g>
<g><path style="opacity:1" fill="#505050" d="M 275.5,117.5 C 276.924,119.515 277.59,121.848 277.5,124.5C 276.076,122.485 275.41,120.152 275.5,117.5 Z"/></g>
<g><path style="opacity:1" fill="#565656" d="M 226.5,144.5 C 226.59,147.152 225.924,149.485 224.5,151.5C 224.41,148.848 225.076,146.515 226.5,144.5 Z"/></g>
<g><path style="opacity:1" fill="#6f6f6f" d="M 588.5,81.5 C 565.167,81.5 541.833,81.5 518.5,81.5C 518.5,127.5 518.5,173.5 518.5,219.5C 517.501,173.336 517.168,127.003 517.5,80.5C 541.339,80.1691 565.006,80.5024 588.5,81.5 Z"/></g>
<g><path style="opacity:1" fill="#9a9a9a" d="M 262.5,156.5 C 263.924,158.515 264.59,160.848 264.5,163.5C 263.076,161.485 262.41,159.152 262.5,156.5 Z"/></g>
<g><path style="opacity:1" fill="#4b4b4b" d="M 287.5,163.5 C 288.924,165.515 289.59,167.848 289.5,170.5C 288.076,168.485 287.41,166.152 287.5,163.5 Z"/></g>
<g><path style="opacity:1" fill="#7e7e7e" d="M 293.5,176.5 C 293.719,177.675 293.386,178.675 292.5,179.5C 291.893,179.376 291.56,179.043 291.5,178.5C 292.167,177.833 292.833,177.167 293.5,176.5 Z"/></g>
<g><path style="opacity:1" fill="#a9a9a9" d="M 320.5,183.5 C 320.59,186.152 319.924,188.485 318.5,190.5C 318.41,187.848 319.076,185.515 320.5,183.5 Z"/></g>
<g><path style="opacity:1" fill="#959595" d="M 239.5,184.5 C 239.59,187.152 238.924,189.485 237.5,191.5C 237.41,188.848 238.076,186.515 239.5,184.5 Z"/></g>
<g><path style="opacity:1" fill="#a5a5a5" d="M 318.5,190.5 C 318.59,193.152 317.924,195.485 316.5,197.5C 316.41,194.848 317.076,192.515 318.5,190.5 Z"/></g>
<g><path style="opacity:1" fill="#989898" d="M 276.5,211.5 C 277.924,213.515 278.59,215.848 278.5,218.5C 277.076,216.485 276.41,214.152 276.5,211.5 Z"/></g>
</svg>
